<mxfile host="65bd71144e">
    <diagram name="Page-1" id="03018318-947c-dd8e-b7a3-06fadd420f32">
        <mxGraphModel dx="2708" dy="2872" grid="1" gridSize="10" guides="1" tooltips="1" connect="1" arrows="1" fold="1" page="1" pageScale="1" pageWidth="1100" pageHeight="850" background="none" math="0" shadow="0">
            <root>
                <mxCell id="0"/>
                <mxCell id="1" parent="0"/>
                <mxCell id="677b7b8949515195-1" value="" style="whiteSpace=wrap;html=1;rounded=0;shadow=0;labelBackgroundColor=none;strokeColor=#000000;strokeWidth=1;fillColor=default;fontFamily=Verdana;fontSize=12;fontColor=#000000;align=center;comic=1;" parent="1" vertex="1">
                    <mxGeometry x="20" y="20" width="1060" height="810" as="geometry"/>
                </mxCell>
                <mxCell id="677b7b8949515195-2" value="LOGO" style="whiteSpace=wrap;html=1;rounded=0;shadow=0;labelBackgroundColor=none;strokeWidth=1;fontFamily=Verdana;fontSize=28;align=center;comic=1;" parent="1" vertex="1">
                    <mxGeometry x="40" y="60" width="190" height="50" as="geometry"/>
                </mxCell>
                <mxCell id="677b7b8949515195-8" value="" style="whiteSpace=wrap;html=1;rounded=0;shadow=0;labelBackgroundColor=none;strokeWidth=1;fillColor=none;fontFamily=Verdana;fontSize=12;align=center;comic=1;" parent="1" vertex="1">
                    <mxGeometry x="35" y="184" width="200" height="590" as="geometry"/>
                </mxCell>
                <mxCell id="677b7b8949515195-9" value="" style="line;strokeWidth=1;html=1;rounded=0;shadow=0;labelBackgroundColor=none;fillColor=none;fontFamily=Verdana;fontSize=14;fontColor=#000000;align=center;comic=1;" parent="1" vertex="1">
                    <mxGeometry x="20" y="140" width="1060" height="10" as="geometry"/>
                </mxCell>
                <mxCell id="677b7b8949515195-16" value="" style="verticalLabelPosition=bottom;shadow=0;dashed=0;align=center;html=1;verticalAlign=top;strokeWidth=1;shape=mxgraph.mockup.graphics.simpleIcon;strokeColor=#999999;rounded=0;labelBackgroundColor=none;fontFamily=Verdana;fontSize=14;fontColor=#000000;comic=1;" parent="1" vertex="1">
                    <mxGeometry x="250" y="184" width="790" height="580" as="geometry"/>
                </mxCell>
                <mxCell id="677b7b8949515195-27" value="Dasboard" style="text;html=1;points=[];align=left;verticalAlign=top;spacingTop=-4;fontSize=14;fontFamily=Verdana" parent="1" vertex="1">
                    <mxGeometry x="40" y="199" width="170" height="20" as="geometry"/>
                </mxCell>
                <mxCell id="677b7b8949515195-28" value="Produk" style="text;html=1;points=[];align=left;verticalAlign=top;spacingTop=-4;fontSize=14;fontFamily=Verdana" parent="1" vertex="1">
                    <mxGeometry x="40" y="235" width="170" height="20" as="geometry"/>
                </mxCell>
                <mxCell id="677b7b8949515195-29" value="Penjualan" style="text;html=1;points=[];align=left;verticalAlign=top;spacingTop=-4;fontSize=14;fontFamily=Verdana" parent="1" vertex="1">
                    <mxGeometry x="40" y="270" width="170" height="20" as="geometry"/>
                </mxCell>
                <mxCell id="677b7b8949515195-30" value="Pembelian" style="text;html=1;points=[];align=left;verticalAlign=top;spacingTop=-4;fontSize=14;fontFamily=Verdana" parent="1" vertex="1">
                    <mxGeometry x="40" y="306" width="170" height="20" as="geometry"/>
                </mxCell>
                <mxCell id="6nutBwAOCKP7LSCkiooO-2" value="&lt;h1 style=&quot;font-size: 25px;&quot;&gt;&lt;font style=&quot;font-size: 40px;&quot;&gt;Data Dashboard&lt;/font&gt;&lt;/h1&gt;" style="text;html=1;strokeColor=none;fillColor=none;align=center;verticalAlign=middle;whiteSpace=wrap;rounded=0;" parent="1" vertex="1">
                    <mxGeometry x="470" y="459" width="390" height="30" as="geometry"/>
                </mxCell>
                <mxCell id="6nutBwAOCKP7LSCkiooO-3" value="" style="whiteSpace=wrap;html=1;rounded=0;shadow=0;labelBackgroundColor=none;strokeColor=#000000;strokeWidth=1;fillColor=default;fontFamily=Verdana;fontSize=12;fontColor=#000000;align=center;comic=1;" parent="1" vertex="1">
                    <mxGeometry x="1200" y="20" width="1060" height="810" as="geometry"/>
                </mxCell>
                <mxCell id="6nutBwAOCKP7LSCkiooO-4" value="LOGO" style="whiteSpace=wrap;html=1;rounded=0;shadow=0;labelBackgroundColor=none;strokeWidth=1;fontFamily=Verdana;fontSize=28;align=center;comic=1;" parent="1" vertex="1">
                    <mxGeometry x="1220" y="60" width="190" height="50" as="geometry"/>
                </mxCell>
                <mxCell id="6nutBwAOCKP7LSCkiooO-5" value="" style="whiteSpace=wrap;html=1;rounded=0;shadow=0;labelBackgroundColor=none;strokeWidth=1;fillColor=none;fontFamily=Verdana;fontSize=12;align=center;comic=1;" parent="1" vertex="1">
                    <mxGeometry x="1215" y="184" width="200" height="590" as="geometry"/>
                </mxCell>
                <mxCell id="6nutBwAOCKP7LSCkiooO-6" value="" style="line;strokeWidth=1;html=1;rounded=0;shadow=0;labelBackgroundColor=none;fillColor=none;fontFamily=Verdana;fontSize=14;fontColor=#000000;align=center;comic=1;" parent="1" vertex="1">
                    <mxGeometry x="1200" y="140" width="1060" height="10" as="geometry"/>
                </mxCell>
                <mxCell id="6nutBwAOCKP7LSCkiooO-7" value="" style="verticalLabelPosition=bottom;shadow=0;dashed=0;align=center;html=1;verticalAlign=top;strokeWidth=1;shape=mxgraph.mockup.graphics.simpleIcon;strokeColor=#999999;rounded=0;labelBackgroundColor=none;fontFamily=Verdana;fontSize=14;fontColor=#000000;comic=1;" parent="1" vertex="1">
                    <mxGeometry x="1430" y="184" width="790" height="580" as="geometry"/>
                </mxCell>
                <mxCell id="6nutBwAOCKP7LSCkiooO-8" value="Dasboard" style="text;html=1;points=[];align=left;verticalAlign=top;spacingTop=-4;fontSize=14;fontFamily=Verdana" parent="1" vertex="1">
                    <mxGeometry x="1220" y="199" width="170" height="20" as="geometry"/>
                </mxCell>
                <mxCell id="6nutBwAOCKP7LSCkiooO-9" value="Produk" style="text;html=1;points=[];align=left;verticalAlign=top;spacingTop=-4;fontSize=14;fontFamily=Verdana" parent="1" vertex="1">
                    <mxGeometry x="1220" y="235" width="170" height="20" as="geometry"/>
                </mxCell>
                <mxCell id="6nutBwAOCKP7LSCkiooO-10" value="Penjualan" style="text;html=1;points=[];align=left;verticalAlign=top;spacingTop=-4;fontSize=14;fontFamily=Verdana" parent="1" vertex="1">
                    <mxGeometry x="1220" y="270" width="170" height="20" as="geometry"/>
                </mxCell>
                <mxCell id="6nutBwAOCKP7LSCkiooO-11" value="Pembelian" style="text;html=1;points=[];align=left;verticalAlign=top;spacingTop=-4;fontSize=14;fontFamily=Verdana" parent="1" vertex="1">
                    <mxGeometry x="1220" y="306" width="170" height="20" as="geometry"/>
                </mxCell>
                <mxCell id="6nutBwAOCKP7LSCkiooO-12" value="&lt;h1 style=&quot;font-size: 25px;&quot;&gt;&lt;font style=&quot;font-size: 40px;&quot;&gt;Data Penjualan&lt;/font&gt;&lt;/h1&gt;" style="text;html=1;strokeColor=none;fillColor=none;align=center;verticalAlign=middle;whiteSpace=wrap;rounded=0;" parent="1" vertex="1">
                    <mxGeometry x="1650" y="459" width="390" height="30" as="geometry"/>
                </mxCell>
                <mxCell id="6nutBwAOCKP7LSCkiooO-13" value="" style="whiteSpace=wrap;html=1;rounded=0;shadow=0;labelBackgroundColor=none;strokeColor=#000000;strokeWidth=1;fillColor=default;fontFamily=Verdana;fontSize=12;fontColor=#000000;align=center;comic=1;" parent="1" vertex="1">
                    <mxGeometry x="20" y="920" width="1060" height="810" as="geometry"/>
                </mxCell>
                <mxCell id="6nutBwAOCKP7LSCkiooO-14" value="LOGO" style="whiteSpace=wrap;html=1;rounded=0;shadow=0;labelBackgroundColor=none;strokeWidth=1;fontFamily=Verdana;fontSize=28;align=center;comic=1;" parent="1" vertex="1">
                    <mxGeometry x="40" y="960" width="190" height="50" as="geometry"/>
                </mxCell>
                <mxCell id="6nutBwAOCKP7LSCkiooO-15" value="" style="whiteSpace=wrap;html=1;rounded=0;shadow=0;labelBackgroundColor=none;strokeWidth=1;fillColor=none;fontFamily=Verdana;fontSize=12;align=center;comic=1;" parent="1" vertex="1">
                    <mxGeometry x="35" y="1084" width="200" height="590" as="geometry"/>
                </mxCell>
                <mxCell id="6nutBwAOCKP7LSCkiooO-16" value="" style="line;strokeWidth=1;html=1;rounded=0;shadow=0;labelBackgroundColor=none;fillColor=none;fontFamily=Verdana;fontSize=14;fontColor=#000000;align=center;comic=1;" parent="1" vertex="1">
                    <mxGeometry x="20" y="1040" width="1060" height="10" as="geometry"/>
                </mxCell>
                <mxCell id="6nutBwAOCKP7LSCkiooO-17" value="" style="verticalLabelPosition=bottom;shadow=0;dashed=0;align=center;html=1;verticalAlign=top;strokeWidth=1;shape=mxgraph.mockup.graphics.simpleIcon;strokeColor=#999999;rounded=0;labelBackgroundColor=none;fontFamily=Verdana;fontSize=14;fontColor=#000000;comic=1;" parent="1" vertex="1">
                    <mxGeometry x="250" y="1084" width="790" height="580" as="geometry"/>
                </mxCell>
                <mxCell id="6nutBwAOCKP7LSCkiooO-18" value="Dasboard" style="text;html=1;points=[];align=left;verticalAlign=top;spacingTop=-4;fontSize=14;fontFamily=Verdana" parent="1" vertex="1">
                    <mxGeometry x="40" y="1099" width="170" height="20" as="geometry"/>
                </mxCell>
                <mxCell id="6nutBwAOCKP7LSCkiooO-19" value="Produk" style="text;html=1;points=[];align=left;verticalAlign=top;spacingTop=-4;fontSize=14;fontFamily=Verdana" parent="1" vertex="1">
                    <mxGeometry x="40" y="1135" width="170" height="20" as="geometry"/>
                </mxCell>
                <mxCell id="6nutBwAOCKP7LSCkiooO-20" value="Penjualan" style="text;html=1;points=[];align=left;verticalAlign=top;spacingTop=-4;fontSize=14;fontFamily=Verdana" parent="1" vertex="1">
                    <mxGeometry x="40" y="1170" width="170" height="20" as="geometry"/>
                </mxCell>
                <mxCell id="6nutBwAOCKP7LSCkiooO-21" value="Pembelian" style="text;html=1;points=[];align=left;verticalAlign=top;spacingTop=-4;fontSize=14;fontFamily=Verdana" parent="1" vertex="1">
                    <mxGeometry x="40" y="1206" width="170" height="20" as="geometry"/>
                </mxCell>
                <mxCell id="6nutBwAOCKP7LSCkiooO-22" value="&lt;h1 style=&quot;font-size: 25px;&quot;&gt;&lt;font style=&quot;font-size: 40px;&quot;&gt;DataPembelian&lt;/font&gt;&lt;/h1&gt;" style="text;html=1;strokeColor=none;fillColor=none;align=center;verticalAlign=middle;whiteSpace=wrap;rounded=0;" parent="1" vertex="1">
                    <mxGeometry x="470" y="1359" width="390" height="30" as="geometry"/>
                </mxCell>
                <mxCell id="6nutBwAOCKP7LSCkiooO-23" value="" style="whiteSpace=wrap;html=1;rounded=0;shadow=0;labelBackgroundColor=none;strokeColor=#000000;strokeWidth=1;fillColor=default;fontFamily=Verdana;fontSize=12;fontColor=#000000;align=center;comic=1;" parent="1" vertex="1">
                    <mxGeometry x="1200" y="920" width="1060" height="810" as="geometry"/>
                </mxCell>
                <mxCell id="6nutBwAOCKP7LSCkiooO-24" value="LOGO" style="whiteSpace=wrap;html=1;rounded=0;shadow=0;labelBackgroundColor=none;strokeWidth=1;fontFamily=Verdana;fontSize=28;align=center;comic=1;" parent="1" vertex="1">
                    <mxGeometry x="1220" y="960" width="190" height="50" as="geometry"/>
                </mxCell>
                <mxCell id="6nutBwAOCKP7LSCkiooO-25" value="" style="whiteSpace=wrap;html=1;rounded=0;shadow=0;labelBackgroundColor=none;strokeWidth=1;fillColor=none;fontFamily=Verdana;fontSize=12;align=center;comic=1;" parent="1" vertex="1">
                    <mxGeometry x="1215" y="1084" width="200" height="590" as="geometry"/>
                </mxCell>
                <mxCell id="6nutBwAOCKP7LSCkiooO-26" value="" style="line;strokeWidth=1;html=1;rounded=0;shadow=0;labelBackgroundColor=none;fillColor=none;fontFamily=Verdana;fontSize=14;fontColor=#000000;align=center;comic=1;" parent="1" vertex="1">
                    <mxGeometry x="1200" y="1040" width="1060" height="10" as="geometry"/>
                </mxCell>
                <mxCell id="6nutBwAOCKP7LSCkiooO-27" value="" style="verticalLabelPosition=bottom;shadow=0;dashed=0;align=center;html=1;verticalAlign=top;strokeWidth=1;shape=mxgraph.mockup.graphics.simpleIcon;strokeColor=#999999;rounded=0;labelBackgroundColor=none;fontFamily=Verdana;fontSize=14;fontColor=#000000;comic=1;" parent="1" vertex="1">
                    <mxGeometry x="1430" y="1084" width="790" height="580" as="geometry"/>
                </mxCell>
                <mxCell id="6nutBwAOCKP7LSCkiooO-28" value="Dasboard" style="text;html=1;points=[];align=left;verticalAlign=top;spacingTop=-4;fontSize=14;fontFamily=Verdana" parent="1" vertex="1">
                    <mxGeometry x="1220" y="1099" width="170" height="20" as="geometry"/>
                </mxCell>
                <mxCell id="6nutBwAOCKP7LSCkiooO-29" value="Produk" style="text;html=1;points=[];align=left;verticalAlign=top;spacingTop=-4;fontSize=14;fontFamily=Verdana" parent="1" vertex="1">
                    <mxGeometry x="1220" y="1135" width="170" height="20" as="geometry"/>
                </mxCell>
                <mxCell id="6nutBwAOCKP7LSCkiooO-30" value="Penjualan" style="text;html=1;points=[];align=left;verticalAlign=top;spacingTop=-4;fontSize=14;fontFamily=Verdana" parent="1" vertex="1">
                    <mxGeometry x="1220" y="1170" width="170" height="20" as="geometry"/>
                </mxCell>
                <mxCell id="6nutBwAOCKP7LSCkiooO-31" value="Pembelian" style="text;html=1;points=[];align=left;verticalAlign=top;spacingTop=-4;fontSize=14;fontFamily=Verdana" parent="1" vertex="1">
                    <mxGeometry x="1220" y="1206" width="170" height="20" as="geometry"/>
                </mxCell>
                <mxCell id="6nutBwAOCKP7LSCkiooO-32" value="&lt;h1 style=&quot;font-size: 25px;&quot;&gt;&lt;font style=&quot;font-size: 40px;&quot;&gt;Data Produk&lt;/font&gt;&lt;/h1&gt;" style="text;html=1;strokeColor=none;fillColor=none;align=center;verticalAlign=middle;whiteSpace=wrap;rounded=0;" parent="1" vertex="1">
                    <mxGeometry x="1650" y="1359" width="390" height="30" as="geometry"/>
                </mxCell>
            </root>
        </mxGraphModel>
    </diagram>
</mxfile>